<?xml version="1.0" encoding="UTF-8"?>
<svg xmlns="http://www.w3.org/2000/svg" viewBox="0 0 4267 6037">
  <defs>
    <style>
      .cls-1 {
        stroke-width: 15px;
      }

      .cls-1, .cls-2 {
        stroke: #eef0e4;
      }

      .cls-1, .cls-2, .cls-3 {
        fill: none;
        stroke-miterlimit: 10;
      }

      .cls-2, .cls-3 {
        stroke-width: 5px;
      }

      .cls-3 {
        stroke: #2a3542;
      }

      .cls-4 {
        fill: #3d4a5d;
      }
    </style>
  </defs>
  <g id="Layer_5" data-name="Layer 5">
    <rect class="cls-4" x="-20.2" y="-14" width="4310.71" height="6187.35"/>
  </g>
  <g id="Layer_4" data-name="Layer 4">
    <path class="cls-1" d="M1765.74,2172.36c24.15.49,60.64.93,105.08.22,177.81-2.84,224.27-19.92,248.35-30.47,52.02-22.79,83.49-51.85,92.94-60.94,32.82-31.57,50.08-62.68,54.85-71.61,49.03-91.87,28.69-184.6,24.38-202.64-6.95-29.07-24.11-81.09-68.56-129.51-9.17-9.99-55.01-58.5-132.55-82.28-34.3-10.52-61.43-12.09-92.77-13.4-58.73-2.46-139.63-4.27-239.4-1.85-1.75,56.98-2.69,115.58-2.68,175.72.02,59.26.96,117.02,2.7,173.21.5,8.66,1.17,21.91,1.52,38.09.54,24.4.1,42.48,0,47.23-1.31,61.14,1.52,405.28,1.52,405.28.52,61.06.36,148.67-3.05,255.97-.02,2.19-.03,4.38-.05,6.57"/>
    <path class="cls-1" d="M1965.6,2170.85c36.07,55.71,72.14,111.41,108.21,167.12,55.35,85.49,71.21,109.64,96.63,149.23,30.03,46.76,73.28,114.71,125.47,198.85"/>
    <path class="cls-1" d="M2431.51,1768.83c-10.4-6.51-54.37-33.31-118.84-48.76-31.16-7.47-146.96-33.42-272.73,24.38-164.3,75.5-214.91,233.84-221,254.03-4.26,14.13-48.18,168.51,34.63,318.15,11.86,21.43,40.22,67.89,91.9,111.93,32.42,27.62,92.36,69.92,178.26,88.37,26.43,5.68,93.93,17.39,176.74-1.52,40.83-9.32,146.17-39.97,228.54-140.17,18.13-22.05,102.44-129.33,92.94-284.92-8.67-141.98-91.51-259.55-190.45-321.48Z"/>
    <path class="cls-1" d="M1758.07,1584.89c-.25,369.21-.51,738.42-.76,1107.63"/>
    <path class="cls-1" d="M2520.52,1575.33c-4.16,159.21-4.16,318.62-7.11,478.03-2.95,209.59,0,419.19,4.95,628.11-8.96-12.96,0-.5,0,0-179.12-256.16-686.87-994.16-755.76-1100.2"/>
    <path class="cls-1" d="M1765.22,1580.5c12.36.47,29.77,1.63,50.36,4.73,98.11,14.76,166.64,58.09,202.26,81.13,26.72,17.28,77.41,53.15,127.98,111.99,45.52,52.96,70.62,100.89,79.05,117.71,46.65,93.02,54.38,173.3,55.79,189.68,1.38,16.04,5.06,68.24-6.86,134.84-4.51,25.21-13.47,64.84-32,109.7-9.54,23.09-50.11,116.59-146.27,202.26-62.55,55.73-125.28,87.36-169.12,105.13-69.7,28.25-131.91,37.81-174.84,41.14"/>
    <path class="cls-1" d="M2647.33,1709.72c-31.13,42.55-62.26,85.1-93.39,127.65"/>
    <path class="cls-1" d="M1753.45,1579.94c-11.27-.05-22.6-.14-34-.29-6.5-.08-12.97-.18-19.43-.29"/>
    <line class="cls-1" x1="1799.72" y1="2699" x2="1716.02" y2="2699"/>
    <line class="cls-1" x1="2560.86" y1="1579.12" x2="2477.16" y2="1579.12"/>
    <path class="cls-1" d="M2623.87,1737.45c-25.66-25.55-182.82-176.88-425.47-166.69-37.83,1.59-231.2,13.55-383.95,173.69-132.27,138.68-150.37,300.72-153.89,350.43-9.83,139.14,34.97,242.98,48.76,272.73,69.82,150.62,217.08,283.45,411.9,318.78,283.78,51.47,481.65-137.81,499.43-155.43"/>
  </g>
  <g id="Layer_1" data-name="Layer 1">
    <g id="C">
      <path class="cls-3" d="M1067.92,4334.88c7.77.16,19.52.3,33.83.07,57.24-.91,72.2-6.41,79.95-9.81,16.75-7.34,26.88-16.69,29.92-19.62,10.57-10.16,16.12-20.18,17.66-23.05,15.78-29.57,9.24-59.43,7.85-65.23-2.24-9.36-7.76-26.1-22.07-41.69-2.95-3.22-17.71-18.83-42.67-26.49-11.04-3.39-19.78-3.89-29.86-4.32-18.91-.79-44.95-1.38-77.07-.6-.56,18.34-.87,37.21-.86,56.57,0,19.08.31,37.67.87,55.76.16,2.79.38,7.05.49,12.26.17,7.85.03,13.68,0,15.21-.42,19.68.49,130.47.49,130.47.17,19.66.11,47.86-.98,82.4,0,.71-.01,1.41-.02,2.12"/>
      <path class="cls-3" d="M1132.26,4334.4c11.61,17.93,23.22,35.87,34.84,53.8,17.82,27.52,22.92,35.3,31.11,48.04,9.67,15.05,23.59,36.93,40.39,64.01"/>
      <path class="cls-3" d="M1282.25,4204.98c-3.35-2.09-17.5-10.72-38.26-15.7-10.03-2.4-47.31-10.76-87.8,7.85-52.89,24.3-69.19,75.28-71.14,81.78-1.37,4.55-15.51,54.25,11.15,102.42,3.82,6.9,12.95,21.86,29.59,36.03,10.44,8.89,29.73,22.51,57.39,28.45,8.51,1.83,30.24,5.6,56.9-.49,13.14-3,47.06-12.87,73.57-45.12,5.84-7.1,32.98-41.63,29.92-91.72-2.79-45.71-29.46-83.56-61.31-103.49Z"/>
      <path class="cls-3" d="M1065.45,4145.76c-.08,118.86-.16,237.71-.25,356.57"/>
      <path class="cls-3" d="M1310.9,4142.69c-1.34,51.25-1.34,102.57-2.29,153.89-.95,67.47,0,134.95,1.59,202.2-2.88-4.17,0-.16,0,0-57.66-82.46-221.12-320.04-243.3-354.18"/>
      <path class="cls-3" d="M1067.76,4144.35c3.98.15,9.58.53,16.21,1.52,31.58,4.75,53.65,18.7,65.11,26.12,8.6,5.56,24.92,17.11,41.2,36.05,14.65,17.05,22.73,32.48,25.45,37.89,15.02,29.95,17.51,55.79,17.96,61.06.44,5.16,1.63,21.97-2.21,43.41-1.45,8.12-4.34,20.87-10.3,35.31-3.07,7.43-16.13,37.53-47.09,65.11-20.14,17.94-40.33,28.12-54.44,33.84-22.44,9.1-42.47,12.17-56.28,13.24"/>
      <path class="cls-2" d="M1351.73,4185.95c-10.02,13.7-20.04,27.4-30.06,41.09"/>
      <path class="cls-3" d="M1063.97,4144.17c-3.63-.02-7.27-.05-10.94-.09-2.09-.03-4.18-.06-6.25-.09"/>
      <line class="cls-3" x1="1078.86" y1="4504.42" x2="1051.92" y2="4504.42"/>
      <line class="cls-3" x1="1323.89" y1="4143.91" x2="1296.94" y2="4143.91"/>
      <path class="cls-2" d="M1344.17,4194.87c-8.26-8.22-58.85-56.94-136.97-53.66-12.18.51-74.43,4.36-123.6,55.92-42.58,44.64-48.41,96.81-49.54,112.81-3.16,44.79,11.26,78.22,15.7,87.8,22.48,48.49,69.88,91.25,132.6,102.62,91.35,16.57,155.06-44.36,160.78-50.04"/>
    </g>
    <g id="O">
      <path class="cls-3" d="M1400.91,4324.58c7.77.16,19.52.3,33.83.07,57.24-.91,72.2-6.41,79.95-9.81,16.75-7.34,26.88-16.69,29.92-19.62,10.57-10.16,16.12-20.18,17.66-23.05,15.78-29.57,9.24-59.43,7.85-65.23-2.24-9.36-7.76-26.1-22.07-41.69-2.95-3.22-17.71-18.83-42.67-26.49-11.04-3.39-19.78-3.89-29.86-4.32-18.91-.79-44.95-1.38-77.07-.6-.56,18.34-.87,37.21-.86,56.57,0,19.08.31,37.67.87,55.76.16,2.79.38,7.05.49,12.26.17,7.85.03,13.68,0,15.21-.42,19.68.49,130.47.49,130.47.17,19.66.11,47.86-.98,82.4,0,.71-.01,1.41-.02,2.12"/>
      <path class="cls-3" d="M1465.25,4324.1c11.61,17.93,23.22,35.87,34.84,53.8,17.82,27.52,22.92,35.3,31.11,48.04,9.67,15.05,23.59,36.93,40.39,64.01"/>
      <path class="cls-3" d="M1398.44,4135.46c-.08,118.86-.16,237.71-.25,356.57"/>
      <path class="cls-3" d="M1643.89,4132.39c-1.34,51.25-1.34,102.57-2.29,153.89-.95,67.47,0,134.95,1.59,202.2-2.88-4.17,0-.16,0,0-57.66-82.46-221.12-320.04-243.3-354.18"/>
      <path class="cls-3" d="M1677.16,4184.58c-8.26-8.22-58.85-56.94-136.97-53.66-12.18.51-74.43,4.36-123.6,55.92-42.58,44.64-48.41,96.81-49.54,112.81-3.16,44.79,11.26,78.22,15.7,87.8,22.48,48.49,69.88,91.25,132.6,102.62,91.35,16.57,155.06-44.36,160.78-50.04"/>
      <path class="cls-3" d="M1400.75,4134.05c3.98.15,9.58.53,16.21,1.52,31.58,4.75,53.65,18.7,65.11,26.12,8.6,5.56,24.92,17.11,41.2,36.05,14.65,17.05,22.73,32.48,25.45,37.89,15.02,29.95,17.51,55.79,17.96,61.06.44,5.16,1.63,21.97-2.21,43.41-1.45,8.12-4.34,20.87-10.3,35.31-3.07,7.43-16.13,37.53-47.09,65.11-20.14,17.94-40.33,28.12-54.44,33.84-22.44,9.1-42.47,12.17-56.28,13.24"/>
      <path class="cls-3" d="M1684.71,4175.65c-10.02,13.7-20.04,27.4-30.06,41.09"/>
      <path class="cls-3" d="M1396.95,4133.87c-3.63-.02-7.27-.05-10.94-.09-2.09-.03-4.18-.06-6.25-.09"/>
      <line class="cls-3" x1="1411.85" y1="4494.12" x2="1384.9" y2="4494.12"/>
      <line class="cls-3" x1="1656.88" y1="4133.61" x2="1629.93" y2="4133.61"/>
      <path class="cls-2" d="M1615.24,4194.68c-3.35-2.09-17.5-10.72-38.26-15.7-10.03-2.4-47.31-10.76-87.8,7.85-52.89,24.3-69.19,75.28-71.14,81.78-1.37,4.55-15.51,54.25,11.15,102.42,3.82,6.9,12.95,21.86,29.59,36.03,10.44,8.89,29.73,22.51,57.39,28.45,8.51,1.83,30.24,5.6,56.9-.49,13.14-3,47.06-12.87,73.57-45.12,5.84-7.1,32.98-41.63,29.92-91.72-2.79-45.71-29.46-83.56-61.31-103.49Z"/>
    </g>
    <g id="N">
      <path class="cls-3" d="M1740.76,4324.58c7.77.16,19.52.3,33.83.07,57.24-.91,72.2-6.41,79.95-9.81,16.75-7.34,26.88-16.69,29.92-19.62,10.57-10.16,16.12-20.18,17.66-23.05,15.78-29.57,9.24-59.43,7.85-65.23-2.24-9.36-7.76-26.1-22.07-41.69-2.95-3.22-17.71-18.83-42.67-26.49-11.04-3.39-19.78-3.89-29.86-4.32-18.91-.79-44.95-1.38-77.07-.6-.56,18.34-.87,37.21-.86,56.57,0,19.08.31,37.67.87,55.76.16,2.79.38,7.05.49,12.26.17,7.85.03,13.68,0,15.21-.42,19.68.49,130.47.49,130.47.17,19.66.11,47.86-.98,82.4,0,.71-.01,1.41-.02,2.12"/>
      <path class="cls-3" d="M1805.1,4324.1c11.61,17.93,23.22,35.87,34.84,53.8,17.82,27.52,22.92,35.3,31.11,48.04,9.67,15.05,23.59,36.93,40.39,64.01"/>
      <path class="cls-3" d="M1955.09,4194.68c-3.35-2.09-17.5-10.72-38.26-15.7-10.03-2.4-47.31-10.76-87.8,7.85-52.89,24.3-69.19,75.28-71.14,81.78-1.37,4.55-15.51,54.25,11.15,102.42,3.82,6.9,12.95,21.86,29.59,36.03,10.44,8.89,29.73,22.51,57.39,28.45,8.51,1.83,30.24,5.6,56.9-.49,13.14-3,47.06-12.87,73.57-45.12,5.84-7.1,32.98-41.63,29.92-91.72-2.79-45.71-29.46-83.56-61.31-103.49Z"/>
      <path class="cls-3" d="M2017.01,4184.58c-8.26-8.22-58.85-56.94-136.97-53.66-12.18.51-74.43,4.36-123.6,55.92-42.58,44.64-48.41,96.81-49.54,112.81-3.16,44.79,11.26,78.22,15.7,87.8,22.48,48.49,69.88,91.25,132.6,102.62,91.35,16.57,155.06-44.36,160.78-50.04"/>
      <path class="cls-3" d="M1740.6,4134.05c3.98.15,9.58.53,16.21,1.52,31.58,4.75,53.65,18.7,65.11,26.12,8.6,5.56,24.92,17.11,41.2,36.05,14.65,17.05,22.73,32.48,25.45,37.89,15.02,29.95,17.51,55.79,17.96,61.06.44,5.16,1.63,21.97-2.21,43.41-1.45,8.12-4.34,20.87-10.3,35.31-3.07,7.43-16.13,37.53-47.09,65.11-20.14,17.94-40.33,28.12-54.44,33.84-22.44,9.1-42.47,12.17-56.28,13.24"/>
      <path class="cls-3" d="M2024.57,4175.65c-10.02,13.7-20.04,27.4-30.06,41.09"/>
      <line class="cls-2" x1="1751.7" y1="4494.12" x2="1724.76" y2="4494.12"/>
      <line class="cls-2" x1="1996.73" y1="4133.61" x2="1969.79" y2="4133.61"/>
      <path class="cls-2" d="M1738.3,4135.46c-.08,118.86-.16,237.71-.25,356.57"/>
      <path class="cls-2" d="M1983.74,4132.39c-1.34,51.25-1.34,102.57-2.29,153.89-.95,67.47,0,134.95,1.59,202.2-2.88-4.17,0-.16,0,0-57.66-82.46-221.12-320.04-243.3-354.18"/>
      <path class="cls-2" d="M1741.69,4133.74c-3.53-.07-7.11-.11-10.74-.12-3.84-.01-7.62.01-11.34.07"/>
    </g>
    <g id="C-2" data-name="C">
      <path class="cls-3" d="M2094.35,4324.58c7.77.16,19.52.3,33.83.07,57.24-.91,72.2-6.41,79.95-9.81,16.75-7.34,26.88-16.69,29.92-19.62,10.57-10.16,16.12-20.18,17.66-23.05,15.78-29.57,9.24-59.43,7.85-65.23-2.24-9.36-7.76-26.1-22.07-41.69-2.95-3.22-17.71-18.83-42.67-26.49-11.04-3.39-19.78-3.89-29.86-4.32-18.91-.79-44.95-1.38-77.07-.6-.56,18.34-.87,37.21-.86,56.57,0,19.08.31,37.67.87,55.76.16,2.79.38,7.05.49,12.26.17,7.85.03,13.68,0,15.21-.42,19.68.49,130.47.49,130.47.17,19.66.11,47.86-.98,82.4,0,.71-.01,1.41-.02,2.12"/>
      <path class="cls-3" d="M2158.69,4324.1c11.61,17.93,23.22,35.87,34.84,53.8,17.82,27.52,22.92,35.3,31.11,48.04,9.67,15.05,23.59,36.93,40.39,64.01"/>
      <path class="cls-3" d="M2308.68,4194.68c-3.35-2.09-17.5-10.72-38.26-15.7-10.03-2.4-47.31-10.76-87.8,7.85-52.89,24.3-69.19,75.28-71.14,81.78-1.37,4.55-15.51,54.25,11.15,102.42,3.82,6.9,12.95,21.86,29.59,36.03,10.44,8.89,29.73,22.51,57.39,28.45,8.51,1.83,30.24,5.6,56.9-.49,13.14-3,47.06-12.87,73.57-45.12,5.84-7.1,32.98-41.63,29.92-91.72-2.79-45.71-29.46-83.56-61.31-103.49Z"/>
      <path class="cls-3" d="M2091.88,4135.46c-.08,118.86-.16,237.71-.25,356.57"/>
      <path class="cls-3" d="M2337.33,4132.39c-1.34,51.25-1.34,102.57-2.29,153.89-.95,67.47,0,134.95,1.59,202.2-2.88-4.17,0-.16,0,0-57.66-82.46-221.12-320.04-243.3-354.18"/>
      <path class="cls-3" d="M2094.18,4134.05c3.98.15,9.58.53,16.21,1.52,31.58,4.75,53.65,18.7,65.11,26.12,8.6,5.56,24.92,17.11,41.2,36.05,14.65,17.05,22.73,32.48,25.45,37.89,15.02,29.95,17.51,55.79,17.96,61.06.44,5.16,1.63,21.97-2.21,43.41-1.45,8.12-4.34,20.87-10.3,35.31-3.07,7.43-16.13,37.53-47.09,65.11-20.14,17.94-40.33,28.12-54.44,33.84-22.44,9.1-42.47,12.17-56.28,13.24"/>
      <path class="cls-2" d="M2378.15,4175.65c-10.02,13.7-20.04,27.4-30.06,41.09"/>
      <path class="cls-3" d="M2090.39,4133.87c-3.63-.02-7.27-.05-10.94-.09-2.09-.03-4.18-.06-6.25-.09"/>
      <line class="cls-3" x1="2105.29" y1="4494.12" x2="2078.34" y2="4494.12"/>
      <line class="cls-3" x1="2350.32" y1="4133.61" x2="2323.37" y2="4133.61"/>
      <path class="cls-2" d="M2370.6,4184.58c-8.26-8.22-58.85-56.94-136.97-53.66-12.18.51-74.43,4.36-123.6,55.92-42.58,44.64-48.41,96.81-49.54,112.81-3.16,44.79,11.26,78.22,15.7,87.8,22.48,48.49,69.88,91.25,132.6,102.62,91.35,16.57,155.06-44.36,160.78-50.04"/>
    </g>
    <g id="O-2" data-name="O">
      <path class="cls-3" d="M2441.07,4324.58c7.77.16,19.52.3,33.83.07,57.24-.91,72.2-6.41,79.95-9.81,16.75-7.34,26.88-16.69,29.92-19.62,10.57-10.16,16.12-20.18,17.66-23.05,15.78-29.57,9.24-59.43,7.85-65.23-2.24-9.36-7.76-26.1-22.07-41.69-2.95-3.22-17.71-18.83-42.67-26.49-11.04-3.39-19.78-3.89-29.86-4.32-18.91-.79-44.95-1.38-77.07-.6-.56,18.34-.87,37.21-.86,56.57,0,19.08.31,37.67.87,55.76.16,2.79.38,7.05.49,12.26.17,7.85.03,13.68,0,15.21-.42,19.68.49,130.47.49,130.47.17,19.66.11,47.86-.98,82.4,0,.71-.01,1.41-.02,2.12"/>
      <path class="cls-3" d="M2505.41,4324.1c11.61,17.93,23.22,35.87,34.84,53.8,17.82,27.52,22.92,35.3,31.11,48.04,9.67,15.05,23.59,36.93,40.39,64.01"/>
      <path class="cls-3" d="M2438.6,4135.46c-.08,118.86-.16,237.71-.25,356.57"/>
      <path class="cls-3" d="M2684.05,4132.39c-1.34,51.25-1.34,102.57-2.29,153.89-.95,67.47,0,134.95,1.59,202.2-2.88-4.17,0-.16,0,0-57.66-82.46-221.12-320.04-243.3-354.18"/>
      <path class="cls-3" d="M2717.32,4184.58c-8.26-8.22-58.85-56.94-136.97-53.66-12.18.51-74.43,4.36-123.6,55.92-42.58,44.64-48.41,96.81-49.54,112.81-3.16,44.79,11.26,78.22,15.7,87.8,22.48,48.49,69.88,91.25,132.6,102.62,91.35,16.57,155.06-44.36,160.78-50.04"/>
      <path class="cls-3" d="M2440.9,4134.05c3.98.15,9.58.53,16.21,1.52,31.58,4.75,53.65,18.7,65.11,26.12,8.6,5.56,24.92,17.11,41.2,36.05,14.65,17.05,22.73,32.48,25.45,37.89,15.02,29.95,17.51,55.79,17.96,61.06.44,5.16,1.63,21.97-2.21,43.41-1.45,8.12-4.34,20.87-10.3,35.31-3.07,7.43-16.13,37.53-47.09,65.11-20.14,17.94-40.33,28.12-54.44,33.84-22.44,9.1-42.47,12.17-56.28,13.24"/>
      <path class="cls-3" d="M2724.87,4175.65c-10.02,13.7-20.04,27.4-30.06,41.09"/>
      <path class="cls-3" d="M2437.11,4133.87c-3.63-.02-7.27-.05-10.94-.09-2.09-.03-4.18-.06-6.25-.09"/>
      <line class="cls-3" x1="2452.01" y1="4494.12" x2="2425.06" y2="4494.12"/>
      <line class="cls-3" x1="2697.04" y1="4133.61" x2="2670.09" y2="4133.61"/>
      <path class="cls-2" d="M2655.4,4194.68c-3.35-2.09-17.5-10.72-38.26-15.7-10.03-2.4-47.31-10.76-87.8,7.85-52.89,24.3-69.19,75.28-71.14,81.78-1.37,4.55-15.51,54.25,11.15,102.42,3.82,6.9,12.95,21.86,29.59,36.03,10.44,8.89,29.73,22.51,57.39,28.45,8.51,1.83,30.24,5.6,56.9-.49,13.14-3,47.06-12.87,73.57-45.12,5.84-7.1,32.98-41.63,29.92-91.72-2.79-45.71-29.46-83.56-61.31-103.49Z"/>
    </g>
    <g id="R">
      <path class="cls-3" d="M2984.95,4187.81c-3.35-2.09-17.5-10.72-38.26-15.7-10.03-2.4-47.31-10.76-87.8,7.85-52.89,24.3-69.19,75.28-71.14,81.78-1.37,4.55-15.51,54.25,11.15,102.42,3.82,6.9,12.95,21.86,29.59,36.03,10.44,8.89,29.73,22.51,57.39,28.45,8.51,1.83,30.24,5.6,56.9-.49,13.14-3,47.06-12.87,73.57-45.12,5.84-7.1,32.98-41.63,29.92-91.72-2.79-45.71-29.46-83.56-61.31-103.49Z"/>
      <path class="cls-3" d="M2768.16,4128.6c-.08,118.86-.16,237.71-.25,356.57"/>
      <path class="cls-3" d="M3013.6,4125.52c-1.34,51.25-1.34,102.57-2.29,153.89-.95,67.47,0,134.95,1.59,202.2-2.88-4.17,0-.16,0,0-57.66-82.46-221.12-320.04-243.3-354.18"/>
      <path class="cls-3" d="M3046.87,4177.71c-8.26-8.22-58.85-56.94-136.97-53.66-12.18.51-74.43,4.36-123.6,55.92-42.58,44.64-48.41,96.81-49.54,112.81-3.16,44.79,11.26,78.22,15.7,87.8,22.48,48.49,69.88,91.25,132.6,102.62,91.35,16.57,155.06-44.36,160.78-50.04"/>
      <path class="cls-3" d="M2770.46,4127.18c3.98.15,9.58.53,16.21,1.52,31.58,4.75,53.65,18.7,65.11,26.12,8.6,5.56,24.92,17.11,41.2,36.05,14.65,17.05,22.73,32.48,25.45,37.89,15.02,29.95,17.51,55.79,17.96,61.06.44,5.16,1.63,21.97-2.21,43.41-1.45,8.12-4.34,20.87-10.3,35.31-3.07,7.43-16.13,37.53-47.09,65.11-20.14,17.94-40.33,28.12-54.44,33.84-22.44,9.1-42.47,12.17-56.28,13.24"/>
      <path class="cls-3" d="M3054.43,4168.78c-10.02,13.7-20.04,27.4-30.06,41.09"/>
      <path class="cls-2" d="M2834.96,4317.23c11.61,17.93,23.22,35.87,34.84,53.8,17.82,27.52,22.92,35.3,31.11,48.04,9.67,15.05,23.59,36.93,40.39,64.01"/>
      <line class="cls-3" x1="3026.59" y1="4126.74" x2="2999.65" y2="4126.74"/>
      <line class="cls-2" x1="2781.56" y1="4487.26" x2="2754.62" y2="4487.26"/>
      <path class="cls-2" d="M2766.67,4127.01c-3.63-.02-7.27-.05-10.94-.09-2.09-.03-4.18-.06-6.25-.09"/>
      <path class="cls-2" d="M2770.62,4317.72c7.77.16,19.52.3,33.83.07,57.24-.91,72.2-6.41,79.95-9.81,16.75-7.34,26.88-16.69,29.92-19.62,10.57-10.16,16.12-20.18,17.66-23.05,15.78-29.57,9.24-59.43,7.85-65.23-2.24-9.36-7.76-26.1-22.07-41.69-2.95-3.22-17.71-18.83-42.67-26.49-11.04-3.39-19.78-3.89-29.86-4.32-18.91-.79-44.95-1.38-77.07-.6-.56,18.34-.87,37.21-.86,56.57,0,19.08.31,37.67.87,55.76.16,2.79.38,7.05.49,12.26.17,7.85.03,13.68,0,15.21-.42,19.68.49,130.47.49,130.47-.96,29.74-1.46,59.62-1.47,89.65v1.52"/>
    </g>
    <g id="D">
      <path class="cls-3" d="M3096.75,4314.29c7.77.16,19.52.3,33.83.07,57.24-.91,72.2-6.41,79.95-9.81,16.75-7.34,26.88-16.69,29.92-19.62,10.57-10.16,16.12-20.18,17.66-23.05,15.78-29.57,9.24-59.43,7.85-65.23-2.24-9.36-7.76-26.1-22.07-41.69-2.95-3.22-17.71-18.83-42.67-26.49-11.04-3.39-19.78-3.89-29.86-4.32-18.91-.79-44.95-1.38-77.07-.6-.56,18.34-.87,37.21-.86,56.57,0,19.08.31,37.67.87,55.76.16,2.79.38,7.05.49,12.26.17,7.85.03,13.68,0,15.21-.42,19.68.49,130.47.49,130.47.17,19.66.11,47.86-.98,82.4,0,.71-.01,1.41-.02,2.12"/>
      <path class="cls-3" d="M3161.09,4313.8c11.61,17.93,23.22,35.87,34.84,53.8,17.82,27.52,22.92,35.3,31.11,48.04,9.67,15.05,23.59,36.93,40.39,64.01"/>
      <path class="cls-3" d="M3311.07,4184.38c-3.35-2.09-17.5-10.72-38.26-15.7-10.03-2.4-47.31-10.76-87.8,7.85-52.89,24.3-69.19,75.28-71.14,81.78-1.37,4.55-15.51,54.25,11.15,102.42,3.82,6.9,12.95,21.86,29.59,36.03,10.44,8.89,29.73,22.51,57.39,28.45,8.51,1.83,30.24,5.6,56.9-.49,13.14-3,47.06-12.87,73.57-45.12,5.84-7.1,32.98-41.63,29.92-91.72-2.79-45.71-29.46-83.56-61.31-103.49Z"/>
      <path class="cls-3" d="M3339.73,4122.09c-1.34,51.25-1.34,102.57-2.29,153.89-.95,67.47,0,134.95,1.59,202.2-2.88-4.17,0-.16,0,0-57.66-82.46-221.12-320.04-243.3-354.18"/>
      <path class="cls-3" d="M3373,4174.28c-8.26-8.22-58.85-56.94-136.97-53.66-12.18.51-74.43,4.36-123.6,55.92-42.58,44.64-48.41,96.81-49.54,112.81-3.16,44.79,11.26,78.22,15.7,87.8,22.48,48.49,69.88,91.25,132.6,102.62,91.35,16.57,155.06-44.36,160.78-50.04"/>
      <path class="cls-2" d="M3096.58,4123.75c3.98.15,9.58.53,16.21,1.52,31.58,4.75,53.65,18.7,65.11,26.12,8.6,5.56,24.92,17.11,41.2,36.05,14.65,17.05,22.73,32.48,25.45,37.89,15.02,29.95,17.51,55.79,17.96,61.06.44,5.16,1.63,21.97-2.21,43.41-1.45,8.12-4.34,20.87-10.3,35.31-3.07,7.43-16.13,37.53-47.09,65.11-20.14,17.94-40.33,28.12-54.44,33.84-22.44,9.1-42.47,12.17-56.28,13.24"/>
      <path class="cls-3" d="M3380.55,4165.35c-10.02,13.7-20.04,27.4-30.06,41.09"/>
      <path class="cls-3" d="M3092.79,4123.57c-3.63-.02-7.27-.05-10.94-.09-2.09-.03-4.18-.06-6.25-.09"/>
      <line class="cls-3" x1="3107.69" y1="4483.82" x2="3080.74" y2="4483.82"/>
      <line class="cls-3" x1="3352.71" y1="4123.31" x2="3325.77" y2="4123.31"/>
      <path class="cls-2" d="M3094.67,4121.59c-.47,119.28-.93,238.56-1.4,357.84"/>
    </g>
  </g>
  <g id="text">
    <g>
      <path id="C-3" data-name="C" class="cls-4" d="M1673.3,3057.48c-17.33,127.08-183.98,92.13-183.98-20.22,0-67.58,50.54-101.09,101.38-101.09,14.73,0,27.44,2.31,48.81,13.86,6.93,3.75,9.53-4.62,10.11-6.35l2.02-7.51h5.78l-41.59,134.88h-6.35c4.04-12.71,34.08-100.8,30.04-110.04-2.89-6.64-27.15-19.06-48.81-19.06-43.32-.29-78.27,29.46-78.27,95.31,0,114.08,141.23,131.12,155.1,20.22h5.78Z"/>
      <path id="O-3" data-name="O" class="cls-4" d="M1785.07,2936.18c60.94,0,101.38,40.43,101.38,101.09s-40.43,101.09-101.38,101.09-101.09-40.15-101.09-101.09,40.43-101.09,101.09-101.09ZM1863.34,3037.27c0-126.79-156.25-127.08-156.25,0s156.25,126.79,156.25,0Z"/>
      <path id="N-2" data-name="N" class="cls-4" d="M2023.06,3138.35l-110.04-185.71v161.16c0,14.44,5.78,18.77,14.44,18.77h5.78v5.78h-46.21v-5.78h5.78c8.66,0,14.44-4.33,14.44-18.77v-170.11c-3.47-1.73-9.24-1.73-14.44-1.73h-5.78v-5.78h43.32l92.71,157.12v-132.57c0-14.44-5.78-18.77-14.44-18.77h-5.78v-5.78h46.21v5.78h-5.78c-8.67,0-14.44,4.33-14.44,18.77v177.62h-5.78Z"/>
      <path id="C-4" data-name="C" class="cls-4" d="M2233.6,3057.48c-17.33,127.08-183.98,92.13-183.98-20.22,0-67.58,50.54-101.09,101.37-101.09,14.73,0,27.44,2.31,48.81,13.86,6.93,3.75,9.53-4.62,10.11-6.35l2.02-7.51h5.78l-41.59,134.88h-6.35c4.04-12.71,34.08-100.8,30.04-110.04-2.89-6.64-27.15-19.06-48.81-19.06-43.32-.29-78.27,29.46-78.27,95.31,0,114.08,141.23,131.12,155.1,20.22h5.78Z"/>
      <path id="O-4" data-name="O" class="cls-4" d="M2345.38,2936.18c60.94,0,101.38,40.43,101.38,101.09s-40.43,101.09-101.38,101.09-101.09-40.15-101.09-101.09,40.43-101.09,101.09-101.09ZM2423.64,3037.27c0-126.79-156.25-127.08-156.25,0s156.25,126.79,156.25,0Z"/>
      <path id="R-2" data-name="R" class="cls-4" d="M2524.15,3043.33h-33.5v73.36c0,14.44,5.78,15.88,14.44,15.88h5.78v5.78h-63.54v-5.78h5.78c8.66,0,14.44-1.44,14.44-15.88v-158.85c0-14.44-5.78-15.88-14.44-15.88h-5.78v-5.78h104.84c73.36,0,78.85,107.15,0,107.15h-4.91l42.17,73.36c7.22,12.42,10.11,15.88,14.44,15.88h5.78v5.78h-31.19l-54.3-95.02ZM2543.21,3037.27c60.65,0,54.01-95.31,0-95.31h-38.12c-8.67,0-14.44,1.44-14.44,15.88v79.43h52.56Z"/>
      <path id="D-2" data-name="D" class="cls-4" d="M2789.28,3037.27c0,62.96-49.97,101.09-101.38,101.09h-66.14v-5.78h5.78c8.66,0,14.44-1.44,14.44-15.88v-158.85c0-14.44-5.78-15.88-14.44-15.88h-5.78v-5.78h66.14c50.83,0,101.38,33.5,101.38,101.09ZM2679.53,3132.58h8.38c45.63,0,78.27-35.24,78.27-95.31,0-65.85-34.95-95.31-78.27-95.31h-8.38c-8.67,0-14.44,1.44-14.44,15.88v158.85c0,14.44,5.78,15.88,14.44,15.88Z"/>
    </g>
  </g>
</svg>