<?xml version="1.0" encoding="UTF-8"?>
<svg id="Layer_2" data-name="Layer 2" xmlns="http://www.w3.org/2000/svg" viewBox="0 0 322.63 368.52">
  <defs>
    <style>
      .cls-1 {
        stroke: #eef0e4;
      }

      .cls-1, .cls-2 {
        fill: none;
        stroke-miterlimit: 10;
        stroke-width: 5px;
      }

      .cls-2 {
        stroke: #2a3542;
      }
    </style>
  </defs>
  <g id="Layer_1-2" data-name="Layer 1">
    <g id="O">
      <path class="cls-2" d="M36.81,196.33c7.77.16,19.52.3,33.83.07,57.24-.91,72.2-6.41,79.95-9.81,16.75-7.34,26.88-16.69,29.92-19.62,10.57-10.16,16.12-20.18,17.66-23.05,15.78-29.57,9.24-59.43,7.85-65.23-2.24-9.36-7.76-26.1-22.07-41.69-2.95-3.22-17.71-18.83-42.67-26.49-11.04-3.39-19.78-3.89-29.86-4.32-18.91-.79-44.95-1.38-77.07-.6-.56,18.34-.87,37.21-.86,56.57,0,19.08.31,37.67.87,55.76.16,2.79.38,7.05.49,12.26.17,7.85.03,13.68,0,15.21-.42,19.68.49,130.47.49,130.47.17,19.66.11,47.86-.98,82.4,0,.71-.01,1.41-.02,2.12"/>
      <path class="cls-2" d="M101.15,195.84c11.61,17.93,23.22,35.87,34.84,53.8,17.82,27.52,22.92,35.3,31.11,48.04,9.67,15.05,23.59,36.93,40.39,64.01"/>
      <path class="cls-2" d="M34.34,7.21c-.08,118.86-.16,237.71-.25,356.57"/>
      <path class="cls-2" d="M279.79,4.13c-1.34,51.25-1.34,102.57-2.29,153.89-.95,67.47,0,134.95,1.59,202.2-2.88-4.17,0-.16,0,0C221.43,277.76,57.98,40.18,35.8,6.05"/>
      <path class="cls-2" d="M313.06,56.32C304.8,48.1,254.21-.62,176.09,2.66c-12.18.51-74.43,4.36-123.6,55.92C9.91,103.22,4.08,155.38,2.95,171.39c-3.16,44.79,11.26,78.22,15.7,87.8,22.48,48.49,69.88,91.25,132.6,102.62,91.35,16.57,155.06-44.36,160.78-50.04"/>
      <path class="cls-2" d="M36.64,5.79c3.98.15,9.58.53,16.21,1.52,31.58,4.75,53.65,18.7,65.11,26.12,8.6,5.56,24.92,17.11,41.2,36.05,14.65,17.05,22.73,32.48,25.45,37.89,15.02,29.95,17.51,55.79,17.96,61.06.44,5.16,1.63,21.97-2.21,43.41-1.45,8.12-4.34,20.87-10.3,35.31-3.07,7.43-16.13,37.53-47.09,65.11-20.14,17.94-40.33,28.12-54.44,33.84-22.44,9.1-42.47,12.17-56.28,13.24"/>
      <path class="cls-2" d="M320.61,47.39c-10.02,13.7-20.04,27.4-30.06,41.09"/>
      <path class="cls-2" d="M32.85,5.62c-3.63-.02-7.27-.05-10.94-.09-2.09-.03-4.18-.06-6.25-.09"/>
      <line class="cls-2" x1="47.75" y1="365.86" x2="20.8" y2="365.86"/>
      <line class="cls-2" x1="292.78" y1="5.35" x2="265.83" y2="5.35"/>
      <path class="cls-1" d="M251.14,66.42c-3.35-2.09-17.5-10.72-38.26-15.7-10.03-2.4-47.31-10.76-87.8,7.85-52.89,24.3-69.19,75.28-71.14,81.78-1.37,4.55-15.51,54.25,11.15,102.42,3.82,6.9,12.95,21.86,29.59,36.03,10.44,8.89,29.73,22.51,57.39,28.45,8.51,1.83,30.24,5.6,56.9-.49,13.14-3,47.06-12.87,73.57-45.12,5.84-7.1,32.98-41.63,29.92-91.72-2.79-45.71-29.46-83.56-61.31-103.49Z"/>
    </g>
  </g>
</svg>