<?xml version="1.0" encoding="UTF-8"?>
<svg id="Layer_2" data-name="Layer 2" xmlns="http://www.w3.org/2000/svg" viewBox="0 0 606.78 1121.29">
  <defs>
    <style>
      .cls-1 {
        fill: none;
        stroke: #eef0e4;
        stroke-miterlimit: 10;
        stroke-width: 15px;
      }
    </style>
  </defs>
  <g id="Layer_4" data-name="Layer 4">
    <path class="cls-1" d="M65.84,601.13c24.15.49,60.64.93,105.08.22,177.81-2.84,224.27-19.92,248.35-30.47,52.02-22.79,83.49-51.85,92.94-60.94,32.82-31.57,50.08-62.68,54.85-71.61,49.03-91.87,28.69-184.6,24.38-202.64-6.95-29.07-24.11-81.09-68.56-129.51-9.17-9.99-55.01-58.5-132.55-82.28-34.3-10.52-61.43-12.09-92.77-13.4-58.73-2.46-139.63-4.27-239.4-1.85-1.75,56.98-2.69,115.58-2.68,175.72.02,59.26.96,117.02,2.7,173.21.5,8.66,1.17,21.91,1.52,38.09.54,24.4.1,42.48,0,47.23-1.31,61.14,1.52,405.28,1.52,405.28.52,61.06.36,148.67-3.05,255.97-.02,2.19-.03,4.38-.05,6.57"/>
    <path class="cls-1" d="M265.7,599.62c36.07,55.71,72.14,111.41,108.21,167.12,55.35,85.49,71.21,109.64,96.63,149.23,30.03,46.76,73.28,114.71,125.47,198.85"/>
    <path class="cls-1" d="M58.17,13.65c-.25,369.21-.51,738.42-.76,1107.63"/>
    <path class="cls-1" d="M53.55,8.71c-11.27-.05-22.6-.14-34-.29-6.5-.08-12.97-.18-19.43-.29"/>
  </g>
</svg>