<?xml version="1.0" encoding="UTF-8"?>
<svg id="Layer_2" data-name="Layer 2" xmlns="http://www.w3.org/2000/svg" viewBox="0 0 540 1119.52">
  <defs>
    <style>
      .cls-1 {
        fill: none;
        stroke: #eef0e4;
        stroke-miterlimit: 10;
        stroke-width: 15px;
      }
    </style>
  </defs>
  <g id="Layer_4" data-name="Layer 4">
    <path class="cls-1" d="M8.26,11.89c-.25,369.21-.51,738.42-.76,1107.63"/>
    <path class="cls-1" d="M15.42,7.49c12.36.47,29.77,1.63,50.36,4.73,98.11,14.76,166.64,58.09,202.26,81.13,26.72,17.28,77.41,53.15,127.98,111.99,45.52,52.96,70.62,100.89,79.05,117.71,46.65,93.02,54.38,173.3,55.79,189.68,1.38,16.04,5.06,68.24-6.86,134.84-4.51,25.21-13.47,64.84-32,109.7-9.54,23.09-50.11,116.59-146.27,202.26-62.55,55.73-125.28,87.36-169.12,105.13-69.7,28.25-131.91,37.81-174.84,41.14"/>
  </g>
</svg>