<?xml version="1.0" encoding="UTF-8"?>
<svg id="textlogo" xmlns="http://www.w3.org/2000/svg" version="1.1" viewBox="0 0 1300 202.2">
  <!-- Generator: Adobe Illustrator 30.0.0, SVG Export Plug-In . SVG Version: 2.1.1 Build 123)  -->
  <defs>
    <style>
      .st0 {
        fill: #eef0e4;
      }
    </style>
  </defs>
  <path id="C" class="st0" d="M216.5,118.8c-15.7,115-166.5,83.4-166.5-18.3S95.8,9,141.8,9s24.8,2.1,44.2,12.5c6.3,3.4,8.6-4.2,9.1-5.8l1.8-6.8h5.2l-37.6,122.1h-5.8c3.7-11.5,30.8-91.2,27.2-99.6-2.6-6-24.6-17.3-44.2-17.3-39.2-.3-70.8,26.7-70.8,86.3,0,103.3,127.8,118.7,140.4,18.3h5.2Z"/>
  <path id="O" class="st0" d="M317.7,9c55.2,0,91.7,36.6,91.7,91.5s-36.6,91.5-91.7,91.5-91.5-36.3-91.5-91.5S262.8,9,317.7,9ZM388.5,100.5c0-114.8-141.4-115-141.4,0s141.4,114.8,141.4,0Z"/>
  <path id="N" class="st0" d="M533.1,192L433.5,23.9v145.9c0,13.1,5.2,17,13.1,17h5.2v5.2h-41.8v-5.2h5.2c7.8,0,13.1-3.9,13.1-17V15.8c-3.1-1.6-8.4-1.6-13.1-1.6h-5.2v-5.2h39.2l83.9,142.2V31.2c0-13.1-5.2-17-13.1-17h-5.2v-5.2h41.8v5.2h-5.2c-7.8,0-13.1,3.9-13.1,17v160.8h-5.2Z"/>
  <path id="C1" class="st0" d="M723.6,118.8c-15.7,115-166.5,83.4-166.5-18.3s45.7-91.5,91.7-91.5,24.8,2.1,44.2,12.5c6.3,3.4,8.6-4.2,9.1-5.8l1.8-6.8h5.2l-37.6,122.1h-5.8c3.7-11.5,30.8-91.2,27.2-99.6-2.6-6-24.6-17.3-44.2-17.3-39.2-.3-70.8,26.7-70.8,86.3,0,103.3,127.8,118.7,140.4,18.3h5.2Z"/>
  <path id="O1" class="st0" d="M824.8,9c55.2,0,91.7,36.6,91.7,91.5s-36.6,91.5-91.7,91.5-91.5-36.3-91.5-91.5,36.6-91.5,91.5-91.5ZM895.6,100.5c0-114.8-141.4-115-141.4,0s141.4,114.8,141.4,0Z"/>
  <path id="R" class="st0" d="M986.6,106h-30.3v66.4c0,13.1,5.2,14.4,13.1,14.4h5.2v5.2h-57.5v-5.2h5.2c7.8,0,13.1-1.3,13.1-14.4V28.6c0-13.1-5.2-14.4-13.1-14.4h-5.2v-5.2h94.9c66.4,0,71.4,97,0,97h-4.4l38.2,66.4c6.5,11.2,9.1,14.4,13.1,14.4h5.2v5.2h-28.2l-49.1-86ZM1003.8,100.5c54.9,0,48.9-86.3,0-86.3h-34.5c-7.8,0-13.1,1.3-13.1,14.4v71.9h47.6Z"/>
  <path id="D" class="st0" d="M1226.6,100.5c0,57-45.2,91.5-91.7,91.5h-59.9v-5.2h5.2c7.8,0,13.1-1.3,13.1-14.4V28.6c0-13.1-5.2-14.4-13.1-14.4h-5.2v-5.2h59.9c46,0,91.7,30.3,91.7,91.5ZM1127.2,186.8h7.6c41.3,0,70.8-31.9,70.8-86.3s-31.6-86.3-70.8-86.3h-7.6c-7.8,0-13.1,1.3-13.1,14.4v143.8c0,13.1,5.2,14.4,13.1,14.4Z"/>
</svg>