<?xml version="1.0" encoding="UTF-8"?>
<svg id="Layer_2" xmlns="http://www.w3.org/2000/svg" version="1.1" viewBox="0 0 1001.7 1143.7">
  <!-- Generator: Adobe Illustrator 30.1.0, SVG Export Plug-In . SVG Version: 2.1.1 Build 89)  -->
  <defs>
    <style>
      .st0 {
        fill: none;
        stroke: #eef0e4;
        stroke-miterlimit: 10;
        stroke-width: 15px;
      }
    </style>
  </defs>
  <g id="Final">
    <path id="_10" class="st0" d="M113.6,17.7c12.4.5,29.8,1.6,50.4,4.7,98.1,14.8,166.6,58.1,202.3,81.1,26.7,17.3,77.4,53.1,128,112,45.5,53,70.6,100.9,79.1,117.7,46.7,93,54.4,173.3,55.8,189.7,1.4,16,5.1,68.2-6.9,134.8-4.5,25.2-13.5,64.8-32,109.7-9.5,23.1-50.1,116.6-146.3,202.3-62.5,55.7-125.3,87.4-169.1,105.1-69.7,28.2-131.9,37.8-174.8,41.1"/>
    <path id="_9" class="st0" d="M101.8,17.2c-11.3,0-22.6-.1-34-.3-6.5,0-13-.2-19.4-.3"/>
    <path id="_8" class="st0" d="M313.9,608.1c36.1,55.7,72.1,111.4,108.2,167.1,55.4,85.5,71.2,109.6,96.6,149.2,30,46.8,73.3,114.7,125.5,198.9"/>
    <line id="_7" class="st0" x1="148.1" y1="1136.2" x2="64.4" y2="1136.2"/>
    <path id="_6" class="st0" d="M114.1,609.6c24.1.5,60.6.9,105.1.2,177.8-2.8,224.3-19.9,248.4-30.5,52-22.8,83.5-51.8,92.9-60.9,32.8-31.6,50.1-62.7,54.8-71.6,49-91.9,28.7-184.6,24.4-202.6-7-29.1-24.1-81.1-68.6-129.5-9.2-10-55-58.5-132.5-82.3-34.3-10.5-61.4-12.1-92.8-13.4-58.7-2.5-139.6-4.3-239.4-1.9-1.8,57-2.7,115.6-2.7,175.7s1,117,2.7,173.2c.5,8.7,1.2,21.9,1.5,38.1.5,24.4,0,42.5,0,47.2-1.3,61.1,1.5,405.3,1.5,405.3-1.9,181.7-3,272.5-3.1,272.5s0-3.3,0-10"/>
    <path id="_5" class="st0" d="M868.9,12.6c-4.2,159.2-4.2,318.6-7.1,478-3,209.6,0,419.2,5,628.1-9-13,0-.5,0,0C687.6,862.5,179.8,124.6,110.9,18.5"/>
    <line id="_4" class="st0" x1="909.2" y1="16.4" x2="825.5" y2="16.4"/>
    <circle id="_3" class="st0" cx="561.9" cy="548" r="411.9"/>
    <path id="_2" class="st0" d="M972.2,174.7c-25.7-25.6-182.8-176.9-425.5-166.7-37.8,1.6-231.2,13.5-384,173.7C30.5,320.4,12.4,482.4,8.9,532.1c-9.8,139.1,35,243,48.8,272.7,69.8,150.6,217.1,283.5,411.9,318.8,283.8,51.5,481.6-137.8,499.4-155.4"/>
    <path id="_1" class="st0" d="M995.7,146.9c-31.1,42.6-62.3,85.1-93.4,127.7"/>
  </g>
</svg>