<?xml version="1.0" encoding="UTF-8"?>
<svg id="Layer_2" xmlns="http://www.w3.org/2000/svg" version="1.1" viewBox="0 0 2351.4 389.1">
  <!-- Generator: Adobe Illustrator 30.0.0, SVG Export Plug-In . SVG Version: 2.1.1 Build 123)  -->
  <defs>
    <style>
      .st0 {
        fill: #eef0e4;
      }
    </style>
  </defs>
  <path id="C" class="st0" d="M194.9,201.8c0-101.3,53.8-147.1,120.4-146.6,33.3,0,70.6,19.1,75.1,29.3,6.2,14.2-40,149.7-46.2,169.3h9.8l64-207.5h-8.9l-3.1,11.6c-.9,2.7-4.9,15.6-15.6,9.8-32.9-17.8-52.4-21.3-75.1-21.3-78.2,0-156,51.5-156,155.5,0,172.8,256.4,226.6,283,31.1h-8.9c-21.3,170.6-238.6,144.4-238.6-31.1Z"/>
  <path id="O" class="st0" d="M614.3,46.3c-93.3,0-155.5,62.2-155.5,155.5s62.2,155.5,155.5,155.5,156-61.8,156-155.5-62.2-155.5-156-155.5ZM494.3,201.8c0-195.5,240.4-195.1,240.4,0s-240.4,195.5-240.4,0Z"/>
  <path id="N" class="st0" d="M949.3,55.2h8.9c13.3,0,22.2,6.7,22.2,28.9v203.9l-142.6-241.7h-66.6v8.9h8.9c8,0,16.9,0,22.2,2.7v261.7c0,22.2-8.9,28.9-22.2,28.9h-8.9v8.9h71.1v-8.9h-8.9c-13.3,0-22.2-6.7-22.2-28.9V71.6l169.3,285.7h8.9V84.1c0-22.2,8.9-28.9,22.2-28.9h8.9v-8.9h-71.1v8.9Z"/>
  <path id="C1" class="st0" d="M1056.8,201.8c0-101.3,53.8-147.1,120.4-146.6,33.3,0,70.6,19.1,75.1,29.3,6.2,14.2-40,149.7-46.2,169.3h9.8l64-207.5h-8.9l-3.1,11.6c-.9,2.7-4.9,15.6-15.6,9.8-32.9-17.8-52.4-21.3-75.1-21.3-78.2,0-156,51.5-156,155.5,0,172.8,256.4,226.6,283,31.1h-8.9c-21.3,170.6-238.6,144.4-238.6-31.1Z"/>
  <path id="O1" class="st0" d="M1476.3,46.3c-93.3,0-155.5,62.2-155.5,155.5s62.2,155.5,155.5,155.5,156-61.8,156-155.5-62.2-155.5-156-155.5ZM1356.3,201.8c0-195.5,240.4-195.1,240.4,0s-240.4,195.5-240.4,0Z"/>
  <path id="R" class="st0" d="M1851.7,324l-64.9-112.9h7.6c121.3,0,112.9-164.8,0-164.8h-161.3v8.9h8.9c13.3,0,22.2,2.2,22.2,24.4v244.4c0,22.2-8.9,24.4-22.2,24.4h-8.9v8.9h97.8v-8.9h-8.9c-13.3,0-22.2-2.2-22.2-24.4v-112.9h51.5l83.5,146.2h48v-8.9h-8.9c-6.7,0-11.1-5.3-22.2-24.4ZM1699.8,201.8v-122.2c0-22.2,8.9-24.4,22.2-24.4h58.7c83.1,0,93.3,146.6,0,146.6h-80.9Z"/>
  <path id="D" class="st0" d="M2003.2,46.3h-101.8v8.9h8.9c13.3,0,22.2,2.2,22.2,24.4v244.4c0,22.2-8.9,24.4-22.2,24.4h-8.9v8.9h101.8c79.1,0,156-58.7,156-155.5s-77.8-155.5-156-155.5ZM2003.2,348.5h-12.9c-13.3,0-22.2-2.2-22.2-24.4V79.6c0-22.2,8.9-24.4,22.2-24.4h12.9c66.6,0,120.4,45.3,120.4,146.6s-50.2,146.6-120.4,146.6Z"/>
</svg>